<svg width="16" height="16" viewBox="0 0 16 16" fill="none" xmlns="http://www.w3.org/2000/svg">
<path d="M10.3538 12.6463C10.4002 12.6927 10.4371 12.7479 10.4622 12.8086C10.4874 12.8693 10.5003 12.9343 10.5003 13C10.5003 13.0657 10.4874 13.1308 10.4622 13.1915C10.4371 13.2522 10.4002 13.3073 10.3538 13.3538C10.3073 13.4002 10.2522 13.4371 10.1915 13.4622C10.1308 13.4874 10.0657 13.5003 10 13.5003C9.93433 13.5003 9.86928 13.4874 9.80858 13.4622C9.74788 13.4371 9.69273 13.4002 9.64628 13.3538L4.64628 8.35378C4.59979 8.30735 4.56291 8.2522 4.53775 8.1915C4.51259 8.1308 4.49963 8.06574 4.49963 8.00003C4.49963 7.93433 4.51259 7.86926 4.53775 7.80856C4.56291 7.74786 4.59979 7.69272 4.64628 7.64628L9.64628 2.64628C9.7401 2.55246 9.86735 2.49976 10 2.49976C10.1327 2.49976 10.26 2.55246 10.3538 2.64628C10.4476 2.7401 10.5003 2.86735 10.5003 3.00003C10.5003 3.13272 10.4476 3.25996 10.3538 3.35378L5.7069 8.00003L10.3538 12.6463Z" fill="#24242E"/>
</svg>
