<svg width="24" height="24" viewBox="0 0 24 24" fill="none" xmlns="http://www.w3.org/2000/svg">
<path d="M12 2.3125C14.5684 2.31523 17.0305 3.33715 18.8467 5.15332C20.6628 6.96949 21.6848 9.43155 21.6875 12C21.6875 13.916 21.1191 15.7888 20.0547 17.3818C18.9902 18.9749 17.4772 20.217 15.707 20.9502C13.937 21.6833 11.9894 21.8747 10.1104 21.501C8.23116 21.1272 6.50521 20.2044 5.15039 18.8496C3.79557 17.4948 2.87282 15.7688 2.49902 13.8896C2.1253 12.0106 2.31668 10.063 3.0498 8.29297C3.78303 6.52281 5.02506 5.00979 6.61816 3.94531C8.11175 2.94735 9.85119 2.3856 11.6416 2.31934L12 2.3125ZM11.2441 3.72266C9.17999 3.91349 7.26092 4.8675 5.86328 6.39844C4.46571 7.92938 3.68999 9.92707 3.6875 12L3.69727 12.3877C3.78968 14.3208 4.55305 16.1663 5.86328 17.6016C7.26092 19.1325 9.17999 20.0865 11.2441 20.2773L11.3125 20.2842V3.71582L11.2441 3.72266ZM18.6875 16.9355L18.8008 16.7744C19.7843 15.3767 20.3125 13.7091 20.3125 12C20.3125 10.2909 19.7843 8.62327 18.8008 7.22559L18.6875 7.06445V16.9355ZM17.3125 5.61133L17.29 5.59277C16.8241 5.20678 16.3169 4.87341 15.7783 4.59766L15.6875 4.55078V19.4492L15.7783 19.4023C16.3169 19.1266 16.8241 18.7932 17.29 18.4072L17.3125 18.3887V5.61133ZM14.3125 4.01855L14.2676 4.00586C13.7738 3.86404 13.2674 3.76935 12.7559 3.72266L12.6875 3.71582V20.2871L12.7559 20.2812C13.2675 20.2346 13.7738 20.1399 14.2676 19.998L14.3125 19.9854V4.01855Z" fill="#B5B5C4" stroke="#B5B5C4" stroke-width="0.125"/>
</svg>
