<svg width="24" height="24" viewBox="0 0 24 24" fill="none" xmlns="http://www.w3.org/2000/svg">
<path d="M8.83301 3.08289C8.95248 3.05287 9.07752 3.05549 9.19434 3.08972L9.30762 3.13464L15.0596 6.01062L15.0801 6.02136L15.1025 6.0155L20.833 4.58289C20.9343 4.55753 21.0404 4.55544 21.1426 4.57703C21.2447 4.59862 21.3405 4.64373 21.4229 4.70789C21.5053 4.77218 21.5723 4.8542 21.6182 4.94812C21.664 5.04205 21.6875 5.14536 21.6875 5.24988V18.7499C21.6875 18.9031 21.6362 19.0519 21.542 19.1727C21.4477 19.2935 21.3156 19.3797 21.167 19.4169L15.167 20.9169C15.1125 20.9305 15.0562 20.9373 15 20.9374L14.9209 20.9325C14.8416 20.9232 14.7643 20.9006 14.6924 20.8651L8.94043 17.9891L8.91992 17.9784L8.89746 17.9843L3.16699 19.4169C3.06568 19.4422 2.95959 19.4444 2.85742 19.4227C2.7553 19.4011 2.65945 19.3561 2.57715 19.2919C2.49482 19.2276 2.42766 19.1455 2.38184 19.0516C2.33602 18.9578 2.31252 18.8543 2.3125 18.7499V5.24988C2.31255 5.09666 2.36373 4.94781 2.45801 4.82703C2.55232 4.70625 2.68436 4.62009 2.83301 4.58289L8.83301 3.08289ZM15.6875 7.28699V19.369L20.3125 18.2128V6.13074L15.6875 7.28699ZM3.6875 5.78699V17.869L8.3125 16.7128V4.63074L3.6875 5.78699ZM14.3125 7.17468L14.2783 7.1571L9.77832 4.9071L9.6875 4.86218V16.8251L9.72168 16.8427L14.2217 19.0927L14.3125 19.1376V7.17468Z" fill="#24242E" stroke="#24242E" stroke-width="0.125"/>
</svg>
